<svg viewBox="0 0 1024 1024" class="icon" version="1.1" xmlns="http://www.w3.org/2000/svg" fill="#212121" stroke="#212121"><g id="SVGRepo_bgCarrier" stroke-width="0"></g><g id="SVGRepo_tracerCarrier" stroke-linecap="round" stroke-linejoin="round"></g><g id="SVGRepo_iconCarrier"><path d="M130.735 253.626m-66.735 0a66.735 66.735 0 1 0 133.47 0 66.735 66.735 0 1 0-133.47 0Z" fill="#000000"></path><path d="M130.735 503.434m-66.735 0a66.735 66.735 0 1 0 133.47 0 66.735 66.735 0 1 0-133.47 0Z" fill="#000000"></path><path d="M130.735 770.374m-66.735 0a66.735 66.735 0 1 0 133.47 0 66.735 66.735 0 1 0-133.47 0Z" fill="#000000"></path><path d="M913.385 283.49H351.807c-16.494 0-29.867-13.373-29.867-29.867s13.373-29.867 29.867-29.867h561.578c16.494 0 29.867 13.373 29.867 29.867s-13.373 29.867-29.867 29.867zM913.385 533.304H351.807c-16.494 0-29.867-13.373-29.867-29.867s13.373-29.867 29.867-29.867h561.578c16.494 0 29.867 13.373 29.867 29.867 0 16.493-13.373 29.867-29.867 29.867zM930.133 800.238H368.564c-16.494 0-29.867-13.373-29.867-29.867s13.373-29.867 29.867-29.867h561.569c16.494 0 29.867 13.373 29.867 29.867s-13.373 29.867-29.867 29.867z" fill="#000000"></path></g></svg>