<svg height="200px" width="200px" version="1.1" id="Layer_1" xmlns="http://www.w3.org/2000/svg" xmlns:xlink="http://www.w3.org/1999/xlink" viewBox="0 0 512 512" xml:space="preserve" fill="#000000"><g id="SVGRepo_bgCarrier" stroke-width="0"></g><g id="SVGRepo_tracerCarrier" stroke-linecap="round" stroke-linejoin="round"></g><g id="SVGRepo_iconCarrier"> <g> <path style="fill:#4C213A;" d="M399.655,512H112.343c-31.426,0-56.993-25.567-56.993-56.993V56.993 C55.351,25.567,80.917,0,112.343,0h202.699c14.534,0,28.377,5.474,38.98,15.414l84.613,79.325 c11.447,10.733,18.013,25.886,18.013,41.579v187.169c0,7.643-6.195,13.838-13.838,13.838c-7.643,0-13.838-6.195-13.838-13.838 V136.318c0-8.072-3.376-15.866-9.266-21.388l-84.613-79.325c-5.453-5.113-12.574-7.929-20.051-7.929H112.343 c-16.165,0-29.317,13.151-29.317,29.317v398.016c0,16.164,13.151,29.315,29.317,29.315h287.314 c16.165,0,29.317-13.151,29.317-29.317V400.23c0-7.643,6.195-13.838,13.838-13.838c7.643,0,13.838,6.195,13.838,13.838v54.777 C456.648,486.433,431.081,512,399.655,512z"></path> <path style="fill:#4C213A;" d="M255.999,407.832c-7.643,0-13.838-6.195-13.838-13.838v-54.582c0-7.643,6.195-13.838,13.838-13.838 c7.643,0,13.838,6.195,13.838,13.838v54.582C269.837,401.636,263.642,407.832,255.999,407.832z"></path> <path style="fill:#4C213A;" d="M283.29,380.541h-54.582c-7.643,0-13.838-6.195-13.838-13.838c0-7.643,6.195-13.838,13.838-13.838 h54.582c7.643,0,13.838,6.195,13.838,13.838C297.128,374.345,290.933,380.541,283.29,380.541z"></path> <path style="fill:#000000;" d="M255.999,457.341c-49.978,0-90.638-40.66-90.638-90.638s40.66-90.638,90.638-90.638 c15.265,0,30.363,3.87,43.664,11.195c6.695,3.686,9.134,12.101,5.448,18.796c-3.686,6.695-12.101,9.134-18.796,5.448 c-9.223-5.077-19.705-7.762-30.315-7.762c-34.718,0-62.962,28.244-62.962,62.962s28.244,62.962,62.962,62.962 s62.962-28.244,62.962-62.962c0-7.643,6.195-13.838,13.838-13.838s13.838,6.195,13.838,13.838 C346.637,416.681,305.977,457.341,255.999,457.341z"></path> </g> <path style="fill:#000000;" d="M327.981,214.488H184.018c-18.002,0-32.594-14.593-32.594-32.594v-45.515 c0-18.002,14.593-32.594,32.594-32.594h143.963c18.002,0,32.594,14.593,32.594,32.594v45.514 C360.575,199.895,345.983,214.488,327.981,214.488z"></path> <path style="fill:#000000;" d="M327.981,228.326H184.018c-25.603,0-46.431-20.829-46.431-46.431v-45.515 c0-25.603,20.829-46.431,46.431-46.431h143.963c25.603,0,46.431,20.829,46.431,46.431v45.515 C374.412,207.497,353.584,228.326,327.981,228.326z M184.018,117.623c-10.342,0-18.756,8.415-18.756,18.756v45.515 c0,10.342,8.415,18.756,18.756,18.756h143.963c10.342,0,18.756-8.415,18.756-18.756v-45.515c0-10.342-8.415-18.756-18.756-18.756 H184.018z"></path> </g></svg>